<!DOCTYPE svg PUBLIC "-//W3C//DTD SVG 1.1//EN" "http://www.w3.org/Graphics/SVG/1.1/DTD/svg11.dtd">

<!-- Uploaded to: SVG Repo, www.svgrepo.com, Transformed by: SVG Repo Mixer Tools -->
<svg width="28px" height="28px" viewBox="-6.4 -6.4 76.80 76.80" xmlns="http://www.w3.org/2000/svg" xmlns:xlink="http://www.w3.org/1999/xlink" aria-hidden="true" role="img" class="iconify iconify--emojione" preserveAspectRatio="xMidYMid meet" fill="#000000">

<g id="SVGRepo_bgCarrier" strokeWidth="0" transform="translate(6.079999999999998,6.079999999999998), scale(0.81)">

<rect x="-6.4" y="-6.4" width="76.80" height="76.80" rx="38.4" fill="#111212" strokewidth="0"/>

</g>

<g id="SVGRepo_tracerCarrier" strokeLinecap="round" strokeLinejoin="round"/>

<g id="SVGRepo_iconCarrier">

<path d="M31.9 2c-13 0-24.1 8.4-28.2 20h56.6C56.1 10.4 45 2 31.9 2z" fill="#f9f9f9"/>

<path d="M31.9 62c13.1 0 24.2-8.4 28.3-20H3.7c4.1 11.7 15.2 20 28.2 20z" fill="#ed4c5c"/>

<path d="M3.7 22C2.6 25.1 2 28.5 2 32s.6 6.9 1.7 10h56.6c1.1-3.1 1.7-6.5 1.7-10s-.6-6.9-1.7-10H3.7" fill="#428bc1"/>

</g>

</svg>