<svg xmlns="http://www.w3.org/2000/svg" width="80" height="80"><path style="stroke:none;fill-rule:nonzero;fill:#000;fill-opacity:1" d="M74.586 0H24.324a2.66 2.66 0 0 0-2.66 2.66v39.676l5.32-5.32V5.32h44.942v62.535h-3.348v5.317h6.008a2.66 2.66 0 0 0 2.66-2.66V2.66A2.66 2.66 0 0 0 74.586 0ZM22.473 72.414c.48.469 1.129.758 1.851.758h30.36v-5.317H27.035Zm0 0"/><path style="stroke:none;fill-rule:nonzero;fill:#000;fill-opacity:1" d="M69.86 58.688c0-1.614-.481-3.102-1.282-4.372a8.204 8.204 0 0 0-1.992-2.16c-1.383-1.05-3.086-1.695-4.953-1.695-1.871 0-3.574.644-4.957 1.695a8.204 8.204 0 0 0-1.992 2.16c-.797 1.27-1.282 2.758-1.282 4.371 0 1.61.485 3.098 1.282 4.368a8.25 8.25 0 0 0 2.66 2.625v13.523a.797.797 0 0 0 1.379.543l2.324-2.512a.792.792 0 0 1 1.168 0l2.324 2.512a.801.801 0 0 0 .875.2.793.793 0 0 0 .504-.743V65.68a8.211 8.211 0 0 0 2.66-2.625 8.15 8.15 0 0 0 1.281-4.367Zm-8.227-3.594a3.594 3.594 0 1 1-.001 7.188 3.594 3.594 0 0 1 0-7.188ZM54.863 41.012a12.031 12.031 0 0 0 9.192-5.075l2.234-3.167a6.86 6.86 0 0 0-.754-8.813c-.285-.289-.66-.43-1.035-.43-.375 0-.75.141-1.04.43l-5.823 5.824a2.618 2.618 0 0 1-3.707 0l-4.266-4.265a2.6 2.6 0 0 1-.77-1.852c0-.7.274-1.363.766-1.855l5.828-5.829c.575-.57.575-1.5 0-2.074a6.856 6.856 0 0 0-4.855-2.011 6.856 6.856 0 0 0-3.961 1.257l-3.164 2.239a12.04 12.04 0 0 0-5.078 9.191l-.375 7.004-33.27 33.277a6.924 6.924 0 0 0 0 9.797 6.894 6.894 0 0 0 4.899 2.031 6.906 6.906 0 0 0 4.898-2.027l33.277-33.277Zm0 0"/></svg>